<?xml version="1.0" encoding="UTF-8"?>
<!DOCTYPE svg PUBLIC "-//W3C//DTD SVG 1.1//EN" "http://www.w3.org/Graphics/SVG/1.1/DTD/svg11.dtd">
<!-- Creator: CorelDRAW -->
<svg xmlns="http://www.w3.org/2000/svg" xml:space="preserve" width="2048px" height="2048px" style="shape-rendering:geometricPrecision; text-rendering:geometricPrecision; image-rendering:optimizeQuality; fill-rule:evenodd; clip-rule:evenodd"
viewBox="0 0 2048 2048"
 xmlns:xlink="http://www.w3.org/1999/xlink">
 <defs>
  <style type="text/css">
   <![CDATA[
    .fil1 {fill:none}
    .fil0 {fill:#212121;fill-rule:nonzero}
   ]]>
  </style>
 </defs>
 <g id="Layer_x0020_1">
  <metadata id="CorelCorpID_0Corel-Layer"/>
  <path class="fil0" d="M1194.44 764.695l69.6508 120.638 -27.6248 16.0004 27.7134 -16.0004c0.50315,0.870473 0.957875,1.7563 1.37008,2.65158l69.3308 120.085 0.120473 -0.0696851c6.46418,11.1969 5.39174,24.6768 -1.64173,34.5662l-69.2682 119.976 -27.6248 -15.8752 27.7134 16.0004c-0.369685,0.640158 -0.759449,1.26024 -1.16575,1.86496l-69.7229 120.764 0.0661418 0.0377953c-6.43583,11.1473 -18.5669,16.9547 -30.5965,15.8752l-138.76 -0.0011811 0 0.125197 -141.644 0c-12.6626,0 -23.6067,-7.35709 -28.7953,-18.0284l-69.6508 -120.638 27.6248 -16.0004 -27.7134 16.0004c-0.50315,-0.870473 -0.957875,-1.7563 -1.37008,-2.65158l-69.3308 -120.085 -0.120473 0.0696851c-6.46418,-11.1969 -5.39174,-24.6768 1.64173,-34.5662l69.2682 -119.976 27.6248 15.8752 -27.7134 -16.0004c0.369685,-0.640158 0.759449,-1.26024 1.16575,-1.86496l69.7229 -120.764 -0.0661418 -0.0377953c6.43583,-11.1473 18.5669,-16.9547 30.5965,-15.8752l138.76 0.0011811 0 -0.125197 141.644 0c12.6626,0 23.6067,7.35709 28.7953,18.0284zm14.3788 152.601l-61.5615 -106.628 -123.256 0 0 -0.125197 -123.183 -0.0011811 -60.5339 104.845c-0.32126,0.655512 -0.664961,1.30512 -1.03465,1.94646l-0.0661418 -0.0377953 -0.022441 0.0377953 -0.0543308 -0.0318898 -61.6016 106.699 60.1335 104.156c0.569292,0.804331 1.10787,1.64055 1.61102,2.51103l-0.0661418 0.0377953 61.5615 106.628 123.256 0 0 0.125197 123.183 0.0011811 60.5339 -104.845c0.32126,-0.655512 0.664961,-1.30512 1.03465,-1.94646l0.0661418 0.0377953 0.022441 -0.0377953 0.0543308 0.0318898 61.6016 -106.699 -60.1335 -104.156c-0.569292,-0.804331 -1.10787,-1.64055 -1.61102,-2.51103l0.0661418 -0.0377953z"/>
  <path class="fil0" d="M1147.26 746.665l61.5615 -106.628 -0.0661418 -0.0377953c0.50315,-0.870473 1.04173,-1.70669 1.61102,-2.51103l60.1335 -104.156 -61.6016 -106.699 -0.0543308 0.0318898 -0.022441 -0.0377953 -0.0661418 0.0377953c-0.369685,-0.641339 -0.713386,-1.29095 -1.03465,-1.94646l-60.5339 -104.845 -123.183 0.0011811 0 0.125197 -123.256 0 -61.5615 106.628 0.0661418 0.0377953c-0.50315,0.870473 -1.04173,1.70669 -1.61102,2.51103l-60.1335 104.156 61.6016 106.699 0.0543308 -0.0318898 0.022441 0.0377953 0.0661418 -0.0377953c0.369685,0.641339 0.713386,1.29095 1.03465,1.94646l60.5339 104.845 123.183 -0.0011811 0 -0.125197 123.256 0zm89.2087 -90.665l27.6248 16.0004 -69.6508 120.638c-5.18859,10.6713 -16.1327,18.0284 -28.7953,18.0284l-141.644 0 0 -0.125197 -138.76 0.0011811c-12.0295,1.07953 -24.1606,-4.72796 -30.5965,-15.8752l0.0661418 -0.0377953 -69.7229 -120.764c-0.4063,-0.604725 -0.796064,-1.2248 -1.16575,-1.86496l27.7134 -16.0004 -27.6248 15.8752 -69.2682 -119.976c-7.03347,-9.88938 -8.10591,-23.3693 -1.64173,-34.5662l0.120473 0.0696851 69.3308 -120.085c0.412205,-0.895276 0.86693,-1.7811 1.37008,-2.65158l27.7134 16.0004 -27.6248 -16.0004 69.6508 -120.638c5.18859,-10.6713 16.1327,-18.0284 28.7953,-18.0284l141.644 0 0 0.125197 138.76 -0.0011811c12.0295,-1.07953 24.1606,4.72796 30.5965,15.8752l-0.0661418 0.0377953 69.7229 120.764c0.4063,0.604725 0.796064,1.2248 1.16575,1.86496l-27.7134 16.0004 27.6248 -15.8752 69.2682 119.976c7.03347,9.88938 8.10591,23.3693 1.64173,34.5662l-0.120473 -0.0696851 -69.3308 120.085c-0.412205,0.895276 -0.86693,1.7811 -1.37008,2.65158l-27.7134 -16.0004z"/>
  <path class="fil0" d="M1147.26 1728l61.5615 -106.628 -0.0661418 -0.0377953c0.50315,-0.870473 1.04173,-1.70669 1.61102,-2.51103l60.1335 -104.156 -61.6016 -106.699 -0.0543308 0.0318898 -0.022441 -0.0377953 -0.0661418 0.0377953c-0.369685,-0.641339 -0.713386,-1.29095 -1.03465,-1.94646l-60.5339 -104.845 -123.183 0.0011811 0 0.125197 -123.256 0 -61.5615 106.628 0.0661418 0.0377953c-0.50315,0.870473 -1.04173,1.70669 -1.61102,2.51103l-60.1335 104.156 61.6016 106.699 0.0543308 -0.0318898 0.022441 0.0377953 0.0661418 -0.0377953c0.369685,0.641339 0.713386,1.29095 1.03465,1.94646l60.5339 104.845 123.183 -0.0011811 0 -0.125197 123.256 0zm89.2087 -90.665l27.6248 16.0004 -69.6508 120.638c-5.18859,10.6713 -16.1327,18.0284 -28.7953,18.0284l-141.644 0 0 -0.125197 -138.76 0.0011811c-12.0295,1.07953 -24.1606,-4.72796 -30.5965,-15.8752l0.0661418 -0.0377953 -69.7229 -120.764c-0.4063,-0.604725 -0.796064,-1.2248 -1.16575,-1.86496l27.7134 -16.0004 -27.6248 15.8752 -69.2682 -119.976c-7.03347,-9.88938 -8.10591,-23.3693 -1.64173,-34.5662l0.120473 0.0696851 69.3308 -120.085c0.412205,-0.895276 0.86693,-1.7811 1.37008,-2.65158l27.7134 16.0004 -27.6248 -16.0004 69.6508 -120.638c5.18859,-10.6713 16.1327,-18.0284 28.7953,-18.0284l141.644 0 0 0.125197 138.76 -0.0011811c12.0295,-1.07953 24.1606,4.72796 30.5965,15.8752l-0.0661418 0.0377953 69.7229 120.764c0.4063,0.604725 0.796064,1.2248 1.16575,1.86496l-27.7134 16.0004 27.6248 -15.8752 69.2682 119.976c7.03347,9.88938 8.10591,23.3693 1.64173,34.5662l-0.120473 -0.0696851 -69.3308 120.085c-0.412205,0.895276 -0.86693,1.7811 -1.37008,2.65158l-27.7134 -16.0004z"/>
  <path class="fil0" d="M1325.67 991.999l123.255 0 123.256 0 61.5626 -106.629 -0.0661418 -0.0377953c0.50315,-0.870473 1.04173,-1.70669 1.61102,-2.51103l60.0969 -104.093 -61.6205 -106.729 -61.5839 -106.665 -123.255 0 -123.33 0 -61.5107 106.541 -27.6248 -15.8752 27.7134 16.0004c-0.369685,0.640158 -0.759449,1.26024 -1.16575,1.86496l-60.5079 104.802 61.5851 106.667 61.5839 106.665zm123.255 64.0016l-141.213 0c-11.1992,0.13937 -22.1457,-5.61142 -28.1433,-16.0004l0.0661418 -0.0377953 -70.7989 -122.628 -69.6993 -120.722c-6.64489,-9.82914 -7.54134,-22.9819 -1.21181,-33.9461l27.7134 16.0004 -27.6248 -16.0004 69.6993 -120.721c0.32126,-0.655512 0.664961,-1.30512 1.03465,-1.94646l0.0661418 0.0377953 0.022441 -0.0377953 0.0543308 0.0318898 69.2717 -119.984c5.04685,-11.0421 16.187,-18.7158 29.1201,-18.7158l141.644 0 141.213 0c11.1992,-0.13937 22.1457,5.61142 28.1433,16.0004l-0.0661418 0.0377953 70.7989 122.628 69.6993 120.722c6.64489,9.82914 7.54134,22.9819 1.21181,33.9461l-0.120473 -0.0696851 -69.3308 120.085c-0.412205,0.895276 -0.86693,1.7811 -1.37008,2.65158l-27.7134 -16.0004 27.6248 16.0004 -69.652 120.639c-5.18859,10.6713 -16.1327,18.0284 -28.7953,18.0284l-141.644 0z"/>
  <path class="fil0" d="M475.815 1482.67l123.255 0 123.33 0 61.5107 -106.541 27.6248 15.8752 -27.7134 -16.0004c0.369685,-0.640158 0.759449,-1.26024 1.16575,-1.86496l60.5079 -104.802 -61.5851 -106.667 -61.5839 -106.665 -123.255 0 -123.256 0 -61.5626 106.629 0.0661418 0.0377953c-0.50315,0.870473 -1.04173,1.70669 -1.61102,2.51103l-60.0969 104.093 61.6205 106.729 61.5839 106.665zm123.255 64.0016l-141.213 0c-11.1992,0.13937 -22.1457,-5.61142 -28.1433,-16.0004l0.0661418 -0.0377953 -70.7989 -122.628 -69.6993 -120.722c-6.64489,-9.82914 -7.54134,-22.9819 -1.21181,-33.9461l0.120473 0.0696851 69.3308 -120.085c0.412205,-0.895276 0.86693,-1.7811 1.37008,-2.65158l27.7134 16.0004 -27.6248 -16.0004 69.652 -120.639c5.18859,-10.6713 16.1327,-18.0284 28.7953,-18.0284l141.644 0 141.213 0c11.1992,-0.13937 22.1457,5.61142 28.1433,16.0004l-0.0661418 0.0377953 70.7989 122.628 69.6993 120.722c6.64489,9.82914 7.54134,22.9819 1.21181,33.9461l-27.7134 -16.0004 27.6248 16.0004 -69.6993 120.721c-0.32126,0.655512 -0.664961,1.30512 -1.03465,1.94646l-0.0661418 -0.0377953 -0.022441 0.0377953 -0.0543308 -0.0318898 -69.2717 119.984c-5.04685,11.0421 -16.187,18.7158 -29.1201,18.7158l-141.644 0z"/>
  <path class="fil0" d="M1202.47 1269.27l61.6193 106.728 -27.6248 16.0004 27.7134 -16.0004c0.50315,0.870473 0.957875,1.7563 1.37008,2.65158l60.052 104.015 123.33 0 123.33 0 61.5107 -106.541 27.6248 15.8752 -27.7134 -16.0004c0.369685,-0.640158 0.759449,-1.26024 1.16575,-1.86496l60.5422 -104.863 -61.6193 -106.729 -61.5107 -106.541 -123.33 0 -123.33 0 -61.5107 106.541 -61.6193 106.729zm6.34725 138.691l-69.6756 -120.683c-6.64489,-9.82796 -7.54134,-22.9819 -1.21181,-33.9461l0.120473 0.0696851 70.7894 -122.612 69.326 -120.077c5.04685,-11.0421 16.187,-18.7158 29.1201,-18.7158l141.644 0 141.214 0c11.1992,-0.13937 22.1457,5.61142 28.1433,16.0004l-27.7134 16.0004 27.6248 -15.8752 70.8213 122.667 69.2682 119.976c7.03347,9.88938 8.10591,23.3693 1.64173,34.5662l-27.7134 -16.0004 27.6248 16.0004 -69.6981 120.719c-0.32126,0.655512 -0.664961,1.30512 -1.03465,1.94646l-0.0661418 -0.0377953 -0.022441 0.0377953 -0.0543308 -0.0318898 -69.2717 119.984c-5.04685,11.0421 -16.187,18.7158 -29.1201,18.7158l-141.644 0 -141.214 0c-11.1992,0.13937 -22.1457,-5.61142 -28.1433,-16.0004l27.7134 -16.0004 -27.6248 15.8752 -69.2989 -120.031c-0.569292,-0.804331 -1.10787,-1.64055 -1.61102,-2.51103l0.0661418 -0.0377953z"/>
  <path class="fil0" d="M352.61 778.729l61.6193 106.729 61.5107 106.541 123.33 0 123.33 0 61.5107 -106.541 61.6193 -106.729 -61.6193 -106.728 27.6248 -16.0004 -27.7134 16.0004c-0.50315,-0.870473 -0.957875,-1.7563 -1.37008,-2.65158l-60.052 -104.015 -123.33 0 -123.33 0 -61.5107 106.541 -27.6248 -15.8752 27.7134 16.0004c-0.369685,0.640158 -0.759449,1.26024 -1.16575,1.86496l-60.5422 104.863zm6.36969 138.48l-69.2682 -119.976c-7.03347,-9.88938 -8.10591,-23.3693 -1.64173,-34.5662l27.7134 16.0004 -27.6248 -16.0004 69.6981 -120.719c0.32126,-0.655512 0.664961,-1.30512 1.03465,-1.94646l0.0661418 0.0377953 0.022441 -0.0377953 0.0543308 0.0318898 69.2717 -119.984c5.04685,-11.0421 16.187,-18.7158 29.1201,-18.7158l141.644 0 141.214 0c11.1992,-0.13937 22.1457,5.61142 28.1433,16.0004l-27.7134 16.0004 27.6248 -15.8752 69.2989 120.031c0.569292,0.804331 1.10787,1.64055 1.61102,2.51103l-0.0661418 0.0377953 69.6756 120.683c6.64489,9.82796 7.54134,22.9819 1.21181,33.9461l-0.120473 -0.0696851 -70.7894 122.612 -69.326 120.077c-5.04685,11.0421 -16.187,18.7158 -29.1201,18.7158l-141.644 0 -141.214 0c-11.1992,0.13937 -22.1457,-5.61142 -28.1433,-16.0004l27.7134 -16.0004 -27.6248 15.8752 -70.8213 -122.667z"/>
 </g>
 <rect class="fil1" width="2048" height="2048"/>
</svg>
