<?xml version="1.0" encoding="utf-8"?>
<!-- Generator: Adobe Illustrator 16.0.0, SVG Export Plug-In . SVG Version: 6.00 Build 0)  -->
<!DOCTYPE svg PUBLIC "-//W3C//DTD SVG 1.1//EN" "http://www.w3.org/Graphics/SVG/1.1/DTD/svg11.dtd">
<svg version="1.1" id="Layer_1" xmlns="http://www.w3.org/2000/svg" xmlns:xlink="http://www.w3.org/1999/xlink" x="0px" y="0px"
	 width="128px" height="128px" viewBox="0 0 128 128" enable-background="new 0 0 128 128" xml:space="preserve">
<g>
	<g>
		<g>
			<g>
				<path fill="#282D33" d="M37.891,128c-1.74,0-3.311-0.75-4.408-1.943c-0.979,0.734-2.193,1.17-3.507,1.17
					c-2.056,0-3.868-1.068-4.917-2.684c-0.838,0.465-1.8,0.729-2.822,0.729c-1.968,0-3.713-0.977-4.779-2.475
					c-0.795,0.328-1.776,0.521-2.967,0.521c-3.235,0-5.866-2.648-5.866-5.906l-0.196-3.934l-0.002-18.33
					c0-3.969,1.816-7.617,4.983-10.008l2.41,3.193c-2.157,1.627-3.394,4.111-3.394,6.814v18.232l0.196,3.934
					c0.002,1.148,0.84,2.004,1.869,2.004c1.873,0,1.873-0.605,1.873-0.932h4v0.98c0,1.051,0.841,1.904,1.874,1.904
					c1.03,0,1.868-0.854,1.868-1.904h4v1.951c0,1.053,0.839,1.908,1.87,1.908c1.034,0,1.875-0.855,1.875-1.908l3.997-0.105
					l0.037,0.742c0,1.127,0.9,2.045,2.006,2.045c1.105,0,2.004-0.918,2.004-2.045l0.021-19.822l3.998-0.08l0.08,1.928l0.002,8.162
					c0,2.176,1.741,3.947,3.887,3.963v-5.365l-0.101-1.459l0.101-0.039v-7.805L37.148,88.832l3.045-2.594l11.689,13.727
					l0.001,10.539l0.082,1.459l-0.083,0.031v4.336l0.111,0.012l-0.111,2.215v1.424l-0.085,0.004l-0.007,0.121h-3.879
					c-1.463,0-2.835-0.4-4.013-1.102l-0.003,2.953C43.895,125.289,41.202,128,37.891,128z"/>
			</g>
			<g>
				<g>
					<polygon fill="#282D33" points="44.405,87.742 8.934,87.742 8.934,58.091 12.934,58.091 12.934,83.742 40.405,83.742 
						40.405,49.898 44.405,49.898 					"/>
				</g>
			</g>
		</g>
	</g>
	<g>
		<g>
			<g>
				<path fill="#282D33" d="M94.689,119.91c-3.886,0-7.601-1.883-9.938-5.037l3.215-2.381c1.608,2.172,4.06,3.418,6.723,3.418
					h18.066l3.895-0.195c1.131-0.004,1.971-0.857,1.971-1.906c0-1.91-0.611-1.91-0.905-1.91v-4h0.97c1.03,0,1.869-0.857,1.869-1.912
					c0-1.049-0.839-1.902-1.869-1.902v-4h1.937c1.031,0,1.871-0.855,1.871-1.906c0-1.055-0.84-1.912-1.871-1.912l-0.105-3.996
					l0.733-0.037c1.106,0,2.006-0.916,2.006-2.045c0-1.123-0.899-2.039-2.006-2.039l-19.639-0.021l-0.082-3.998l1.91-0.08
					l8.086-0.002c2.152,0,3.903-1.775,3.91-3.961h-5.306l-1.31,0.074l-0.038-0.074h-7.844L88.461,90.91l-2.621-3.021l13.604-11.803
					h10.442l1.314-0.109l0.054,0.109h4.395l0.012-0.104l2.252,0.104h1.466l0.002,0.084l0.054,0.002l0.001,3.9
					c0,1.488-0.406,2.881-1.111,4.074l2.928,0.002c3.31,0,6.004,2.709,6.004,6.039c0,1.756-0.747,3.34-1.938,4.445
					c0.738,0.988,1.176,2.215,1.176,3.545c0,2.07-1.065,3.896-2.674,4.951c0.469,0.848,0.735,1.822,0.735,2.857
					c0,1.982-0.973,3.74-2.463,4.813c0.334,0.805,0.529,1.799,0.529,3.01c0,3.256-2.634,5.902-5.871,5.902l-3.895,0.197
					L94.689,119.91z"/>
			</g>
			<g>
				<g>
					<polygon fill="#282D33" points="87.371,119.398 57.98,119.398 57.98,115.398 83.371,115.398 83.371,87.631 49.862,87.631 
						49.862,83.631 87.371,83.631 					"/>
				</g>
			</g>
		</g>
	</g>
	<g>
		<g>
			<g>
				<path fill="#282D33" d="M114.257,42.859l-2.41-3.191c2.157-1.63,3.395-4.114,3.395-6.815V14.62l-0.196-3.934
					c-0.002-1.149-0.84-2.005-1.869-2.005c-1.864,0-1.871,0.602-1.871,0.928v0.003h-4v-0.98c0-1.05-0.841-1.905-1.875-1.905
					c-1.029,0-1.867,0.854-1.867,1.905h-4V6.681c0-1.052-0.84-1.908-1.873-1.908c-1.034,0-1.875,0.856-1.875,1.908l-3.998,0.098
					l-0.031-0.637C91.783,4.917,90.883,4,89.775,4c-1.104,0-2.004,0.917-2.004,2.043L87.75,25.867l-3.998,0.08l-0.079-1.928
					l-0.002-8.161c0-2.176-1.741-3.947-3.888-3.963v5.338l0.163,1.441l-0.163,0.064v7.826l10.733,12.604l-3.045,2.594L75.783,28.037
					V11.701l-0.097-0.01l0.097-2.312V7.996l0.071-0.003l0.005-0.097l3.896-0.001c1.464,0,2.836,0.402,4.014,1.101l0.003-2.954
					c0-3.33,2.693-6.041,6.004-6.041c1.74,0,3.311,0.748,4.408,1.942c0.979-0.735,2.193-1.17,3.506-1.17
					c2.057,0,3.87,1.069,4.919,2.684c0.838-0.464,1.8-0.729,2.821-0.729c1.968,0,3.713,0.978,4.78,2.475
					c0.795-0.329,1.774-0.522,2.966-0.522c3.235,0,5.867,2.65,5.867,5.907l0.196,3.934l0.002,18.331
					C119.241,36.819,117.425,40.467,114.257,42.859z"/>
			</g>
			<g>
				<g>
					<polygon fill="#282D33" points="87.262,78.102 83.262,78.102 83.262,40.259 118.734,40.259 118.734,69.91 114.734,69.91 
						114.734,44.259 87.262,44.259 					"/>
				</g>
			</g>
		</g>
	</g>
	<g>
		<g>
			<g>
				<path fill="#282D33" d="M12.329,53.034l-2.221-0.11H8.667l-0.004-0.086l-0.097-0.006l-0.001-3.896
					c0-1.486,0.406-2.878,1.111-4.07l-2.928-0.003c-3.309,0-6.003-2.71-6.003-6.042c0-1.755,0.748-3.338,1.939-4.443
					c-0.738-0.988-1.175-2.216-1.175-3.544c0-2.071,1.064-3.897,2.671-4.952c-0.469-0.848-0.736-1.822-0.736-2.859
					c0-1.982,0.974-3.739,2.465-4.813c-0.333-0.804-0.529-1.798-0.529-3.008c0-3.256,2.634-5.904,5.872-5.904l3.894-0.195
					l18.166-0.002c3.944,0,7.566,1.836,9.938,5.038l-3.215,2.381c-1.609-2.172-4.059-3.418-6.723-3.418H15.244l-3.894,0.195
					c-1.131,0.002-1.971,0.857-1.971,1.907c0,1.909,0.609,1.909,0.902,1.909v4H9.315c-1.032,0-1.872,0.858-1.872,1.912
					c0,1.049,0.84,1.902,1.872,1.902v4H7.379c-1.032,0-1.871,0.856-1.871,1.909c0,1.054,0.839,1.911,1.871,1.911l0.104,3.997
					L6.75,36.776c-1.106,0-2.006,0.917-2.006,2.044c0,1.126,0.9,2.042,2.006,2.042l19.64,0.022l0.082,3.998l-1.909,0.08
					l-8.088,0.002c-2.152,0-3.903,1.775-3.909,3.96h5.278l1.473-0.15l0.056,0.15h7.689l12.479-10.826l2.621,3.021L28.555,52.924
					l-11.943,0.052l-0.019-0.052h-4.25L12.329,53.034z"/>
			</g>
			<g>
				<g>
					<polygon fill="#282D33" points="78.137,45.377 40.63,45.377 40.63,9.609 70.02,9.609 70.02,13.609 44.63,13.609 44.63,41.377 
						78.137,41.377 					"/>
				</g>
			</g>
		</g>
	</g>
</g>
</svg>
