<?xml version="1.0" encoding="UTF-8"?>
<!DOCTYPE svg PUBLIC "-//W3C//DTD SVG 1.1//EN" "http://www.w3.org/Graphics/SVG/1.1/DTD/svg11.dtd">
<!-- Creator: CorelDRAW -->
<svg xmlns="http://www.w3.org/2000/svg" xml:space="preserve" width="2048px" height="2048px" style="shape-rendering:geometricPrecision; text-rendering:geometricPrecision; image-rendering:optimizeQuality; fill-rule:evenodd; clip-rule:evenodd"
viewBox="0 0 2048 2048"
 xmlns:xlink="http://www.w3.org/1999/xlink">
 <defs>
  <style type="text/css">
   <![CDATA[
    .fil1 {fill:none}
    .fil0 {fill:#212121;fill-rule:nonzero}
   ]]>
  </style>
 </defs>
 <g id="Layer_x0020_1">
  <metadata id="CorelCorpID_0Corel-Layer"/>
  <path class="fil0" d="M1024 255.999c128.981,0 245.977,45.7394 330.86,119.688 86.0965,75.0036 139.349,178.951 139.349,294.064 0,108.982 -48.0662,175.791 -104.146,253.742 -75.691,105.208 -167.498,232.82 -155.545,531.15l0.100394 -0.00354331c0.707481,17.6587 -13.0347,32.5488 -30.6933,33.2563 -0.42874,0.0177165 -0.855119,0.0236221 -1.2815,0.0236221l0 0.00236221 -355.575 0c-17.6728,0 -32.0008,-14.328 -32.0008,-32.0008 0,-1.23662 0.0720473,-2.45788 0.209055,-3.65788 11.4213,-298.031 -80.5064,-424.22 -156.419,-528.393 -56.5583,-77.6162 -105.066,-144.182 -105.066,-254.12 0,-115.113 53.2524,-219.06 139.349,-294.064 84.8835,-73.9489 201.879,-119.688 330.86,-119.688zm288.86 167.939c-73.7127,-64.2166 -175.825,-103.937 -288.86,-103.937 -113.035,0 -215.147,39.7205 -288.86,103.937 -72.502,63.1607 -117.347,150.09 -117.347,245.814 0,89.5926 42.737,148.239 92.5654,216.62 79.1694,108.64 174.494,239.502 169.52,537.55l289.956 0c-4.9193,-296.612 89.8465,-428.384 168.477,-537.677 49.4847,-68.7827 91.8957,-127.734 91.8957,-216.493 0,-95.7237 -44.8453,-182.653 -117.347,-245.814z"/>
  <path class="fil0" d="M1202.24 1591.27c17.6728,0 32.0008,-14.328 32.0008,-32.0008 0,-17.6728 -14.328,-32.0008 -32.0008,-32.0008l-355.17 0c-17.6728,0 -32.0008,14.328 -32.0008,32.0008 0,17.6728 14.328,32.0008 32.0008,32.0008l355.17 0z"/>
  <path class="fil0" d="M1164.51 1691.64c17.6728,0 32.0008,-14.328 32.0008,-32.0008 0,-17.6728 -14.328,-32.0008 -32.0008,-32.0008l-279.723 0c-17.6728,0 -32.0008,14.328 -32.0008,32.0008 0,17.6728 14.328,32.0008 32.0008,32.0008l279.723 0z"/>
  <path class="fil0" d="M1100.26 1792c17.6728,0 32.0008,-14.328 32.0008,-32.0008 0,-17.6728 -14.328,-32.0008 -32.0008,-32.0008l-151.217 0c-17.6728,0 -32.0008,14.328 -32.0008,32.0008 0,17.6728 14.328,32.0008 32.0008,32.0008l151.217 0z"/>
  <path class="fil0" d="M1024 377.198c-17.6728,0 -32.0008,14.328 -32.0008,32.0008 0,17.6728 14.328,32.0008 32.0008,32.0008 74.615,0 141.947,26.1544 190.484,68.4378 47.3268,41.2288 76.5993,97.8591 76.5993,160.113 0,17.6728 14.328,32.0008 32.0008,32.0008 17.6728,0 32.0008,-14.328 32.0008,-32.0008 0,-81.6438 -37.6807,-155.291 -98.6009,-208.363 -59.7071,-52.0158 -141.921,-84.189 -232.484,-84.189z"/>
 </g>
 <rect class="fil1" width="2048" height="2048"/>
</svg>
