<?xml version="1.0" encoding="UTF-8"?>
<!DOCTYPE svg PUBLIC "-//W3C//DTD SVG 1.1//EN" "http://www.w3.org/Graphics/SVG/1.1/DTD/svg11.dtd">
<!-- Creator: CorelDRAW -->
<svg xmlns="http://www.w3.org/2000/svg" xml:space="preserve" width="2048px" height="2048px" style="shape-rendering:geometricPrecision; text-rendering:geometricPrecision; image-rendering:optimizeQuality; fill-rule:evenodd; clip-rule:evenodd"
viewBox="0 0 2048 2048"
 xmlns:xlink="http://www.w3.org/1999/xlink">
 <defs>
  <style type="text/css">
   <![CDATA[
    .fil2 {fill:none}
    .fil4 {fill:#03A9F4}
    .fil6 {fill:#455A64}
    .fil1 {fill:#B0BEC5}
    .fil0 {fill:#CFD8DC}
    .fil3 {fill:#EF5350}
    .fil5 {fill:#FFECB3}
   ]]>
  </style>
   <clipPath id="id0">
    <path d="M1024 -0.0011811c565.539,0 1024,458.462 1024,1024 0,565.539 -458.462,1024 -1024,1024 -565.539,0 -1024,-458.462 -1024,-1024 0,-565.539 458.462,-1024 1024,-1024z"/>
   </clipPath>
 </defs>
 <g id="Layer_x0020_1">
  <metadata id="CorelCorpID_0Corel-Layer"/>
  <path class="fil0" d="M1024 -0.0011811c565.539,0 1024,458.462 1024,1024 0,565.539 -458.462,1024 -1024,1024 -565.539,0 -1024,-458.462 -1024,-1024 0,-565.539 458.462,-1024 1024,-1024z"/>
  <g style="clip-path:url(#id0)">
   <g id="_289345952">
    <g>
     <polygon id="_2886372881" class="fil1" points="682.514,712.86 1818.39,1848.74 1816.74,1848.75 1815.02,1848.77 1813.23,1848.8 1811.39,1848.84 1809.5,1848.91 1807.56,1849 1805.58,1849.1 1803.56,1849.23 1801.52,1849.39 1799.45,1849.57 1797.36,1849.78 1795.26,1850.03 1793.15,1850.3 1791.03,1850.61 1788.92,1850.96 1786.82,1851.35 1784.73,1851.77 1782.66,1852.24 1780.61,1852.75 1778.6,1853.31 1776.61,1853.91 1774.67,1854.57 1772.78,1855.27 1770.93,1856.03 1769.14,1856.85 1767.41,1857.72 1765.75,1858.65 1764.17,1859.64 1762.66,1860.7 1761.23,1861.81 1759.89,1863 1758.65,1864.25 622.769,728.369 624.012,727.116 625.349,725.931 626.776,724.814 628.286,723.76 629.873,722.768 631.532,721.838 633.26,720.967 635.049,720.152 636.895,719.392 638.791,718.686 640.733,718.032 642.715,717.427 644.732,716.869 646.779,716.358 648.85,715.89 650.939,715.464 653.041,715.079 655.152,714.732 657.265,714.422 659.376,714.146 661.477,713.903 663.566,713.691 665.636,713.508 667.68,713.352 669.695,713.221 671.675,713.114 673.614,713.029 675.507,712.962 677.35,712.915 679.134,712.883 680.858,712.866 "/>
     <polygon id="_288637720" class="fil1" points="608.098,892.807 1743.98,2028.69 1743.97,2031.54 1743.95,2034.45 1743.91,2037.42 1743.85,2040.45 1743.76,2043.52 1743.66,2046.63 1743.52,2049.79 1743.36,2052.98 1743.17,2056.19 1742.94,2059.43 1742.68,2062.69 1742.39,2065.97 1742.05,2069.25 1741.68,2072.54 1741.26,2075.82 1740.8,2079.1 1740.29,2082.37 1739.73,2085.62 1739.12,2088.85 1738.46,2092.06 1737.75,2095.23 1736.98,2098.38 1736.14,2101.48 1735.25,2104.53 1734.29,2107.54 1733.27,2110.49 1732.18,2113.38 1731.03,2116.2 1729.8,2118.95 1728.49,2121.63 1727.12,2124.23 1725.66,2126.75 589.779,990.867 591.234,988.351 592.613,985.751 593.915,983.071 595.145,980.317 596.302,977.493 597.391,974.603 598.413,971.654 599.369,968.649 600.261,965.593 601.094,962.494 601.867,959.352 602.584,956.176 603.244,952.971 603.852,949.738 604.41,946.485 604.919,943.217 605.38,939.937 605.797,936.653 606.173,933.367 606.506,930.085 606.802,926.812 607.061,923.552 607.286,920.312 607.478,917.095 607.64,913.907 607.774,910.752 607.882,907.637 607.965,904.564 608.026,901.54 608.067,898.569 608.091,895.657 "/>
     <polygon id="_288637576" class="fil1" points="622.769,728.369 1758.65,1864.25 1757.43,1865.67 1756.28,1867.23 1755.19,1868.9 1754.17,1870.7 1753.22,1872.6 1752.32,1874.6 1751.49,1876.69 1750.71,1878.87 1749.98,1881.12 1749.31,1883.45 1748.69,1885.83 1748.12,1888.26 1747.6,1890.73 1747.12,1893.24 1746.69,1895.78 1746.29,1898.34 1745.94,1900.91 1745.62,1903.48 1745.34,1906.05 1745.09,1908.61 1744.87,1911.14 1744.68,1913.65 1744.52,1916.12 1744.39,1918.55 1744.28,1920.92 1744.19,1923.23 1744.11,1925.47 1744.06,1927.64 1744.02,1929.72 1744,1931.7 1743.98,1933.59 1743.98,1935.37 608.098,799.483 608.102,797.707 608.116,795.82 608.141,793.834 608.18,791.754 608.233,789.589 608.305,787.346 608.395,785.036 608.507,782.663 608.643,780.238 608.803,777.768 608.991,775.262 609.21,772.727 609.458,770.171 609.74,767.603 610.058,765.03 610.412,762.46 610.805,759.902 611.24,757.362 611.718,754.851 612.241,752.376 612.812,749.944 613.432,747.563 614.103,745.242 614.827,742.99 615.606,740.812 616.441,738.719 617.337,736.717 618.293,734.815 619.313,733.022 620.397,731.344 621.549,729.791 "/>
     <polygon id="_288637408" class="fil1" points="608.098,799.483 1743.98,1935.37 1743.98,2028.69 608.098,892.807 "/>
     <polygon id="_288637888" class="fil1" points="708.117,649.182 1844,1785.06 1844,1848.74 708.117,712.86 "/>
     <polygon id="_288637960" class="fil1" points="589.779,990.867 1725.66,2126.75 1723.9,2129.54 1722.04,2132.22 1720.1,2134.82 1718.06,2137.32 1715.95,2139.73 1713.75,2142.05 1711.48,2144.28 1709.13,2146.42 1706.72,2148.49 1704.24,2150.47 1701.69,2152.36 1699.09,2154.18 1696.42,2155.93 1693.71,2157.59 1690.94,2159.19 1688.13,2160.71 552.248,1024.83 555.061,1023.3 557.826,1021.71 560.542,1020.04 563.204,1018.3 565.81,1016.48 568.355,1014.58 570.837,1012.6 573.253,1010.54 575.599,1008.4 577.87,1006.17 580.067,1003.85 582.182,1001.44 584.215,998.935 586.16,996.341 588.017,993.653 "/>
     <polygon id="_288637840" class="fil1" points="575.604,1041.09 1711.48,2176.97 1713.76,2179.19 1715.95,2181.5 1718.07,2183.9 1720.1,2186.4 1722.04,2188.99 1723.9,2191.68 1725.66,2194.46 589.779,1058.58 588.017,1055.79 586.161,1053.11 584.216,1050.52 582.185,1048.02 580.069,1045.62 577.875,1043.31 "/>
     <polygon id="_288637792" class="fil1" points="589.779,1058.58 1725.66,2194.46 1727.12,2196.98 1728.5,2199.58 1729.8,2202.26 1731.03,2205.02 1732.19,2207.85 1733.28,2210.74 1734.3,2213.7 1735.26,2216.71 1736.15,2219.77 1736.98,2222.87 1737.75,2226.01 1738.47,2229.2 1739.13,2232.41 1739.74,2235.64 1740.3,2238.9 1740.81,2242.17 1741.27,2245.46 1741.68,2248.75 1742.06,2252.04 1742.39,2255.33 1742.69,2258.6 1742.95,2261.87 1743.17,2265.11 1743.36,2268.33 1743.52,2271.53 1743.66,2274.68 1743.76,2277.8 1743.85,2280.88 1743.91,2283.91 1743.95,2286.88 1743.97,2289.8 1743.98,2292.65 608.098,1156.77 608.091,1153.92 608.067,1151 608.027,1148.03 607.966,1145 607.883,1141.92 607.776,1138.8 607.642,1135.64 607.48,1132.45 607.289,1129.23 607.065,1125.98 606.806,1122.72 606.511,1119.44 606.178,1116.16 605.803,1112.87 605.386,1109.58 604.924,1106.29 604.417,1103.02 603.859,1099.76 603.251,1096.52 602.591,1093.31 601.874,1090.13 601.101,1086.99 600.269,1083.88 599.376,1080.82 598.419,1077.81 597.397,1074.86 596.308,1071.97 595.15,1069.14 593.919,1066.38 592.615,1063.7 591.237,1061.1 "/>
     <polygon id="_288637864" class="fil1" points="515.702,1072.67 1651.58,2208.55 1650.41,2207.54 1649.2,2206.56 1647.96,2205.63 1646.7,2204.73 1645.4,2203.88 1644.08,2203.06 1642.73,2202.28 1641.36,2201.53 1639.97,2200.81 1638.55,2200.13 1637.12,2199.49 1635.67,2198.87 1634.21,2198.29 1632.73,2197.74 1631.24,2197.21 1629.74,2196.72 1628.22,2196.25 1626.7,2195.82 1625.18,2195.4 1623.65,2195.02 1622.11,2194.65 1620.58,2194.32 1619.04,2194 1617.51,2193.71 1615.98,2193.44 1614.45,2193.19 1612.93,2192.96 1611.41,2192.74 1609.91,2192.55 474.03,1056.67 475.533,1056.86 477.046,1057.07 478.568,1057.3 480.095,1057.55 481.626,1057.83 483.161,1058.12 484.696,1058.43 486.232,1058.77 487.766,1059.13 489.297,1059.52 490.823,1059.93 492.343,1060.37 493.855,1060.84 495.357,1061.33 496.849,1061.86 498.328,1062.41 499.792,1062.99 501.241,1063.61 502.673,1064.25 504.085,1064.93 505.479,1065.65 506.849,1066.39 508.197,1067.18 509.52,1068 510.815,1068.85 512.083,1069.75 513.32,1070.68 514.528,1071.65 "/>
     <polygon id="_288606232" class="fil1" points="608.098,1249.57 1743.98,2385.45 1743.98,2387.21 1744,2389.08 1744.02,2391.06 1744.06,2393.13 1744.11,2395.29 1744.18,2397.52 1744.27,2399.83 1744.38,2402.19 1744.51,2404.62 1744.66,2407.08 1744.85,2409.59 1745.06,2412.12 1745.3,2414.68 1745.58,2417.25 1745.89,2419.83 1746.23,2422.4 1746.62,2424.96 1747.04,2427.5 1747.51,2430.01 1748.02,2432.49 1748.58,2434.93 1749.18,2437.31 1749.84,2439.64 1750.55,2441.89 1751.31,2444.07 1752.13,2446.17 1753,2448.17 1753.94,2450.07 1754.94,2451.86 1756,2453.54 1757.13,2455.09 1758.32,2456.5 622.44,1320.62 621.245,1319.2 620.118,1317.65 619.056,1315.98 618.06,1314.19 617.123,1312.28 616.248,1310.28 615.429,1308.19 614.667,1306.01 613.96,1303.75 613.303,1301.43 612.697,1299.05 612.14,1296.61 611.628,1294.13 611.162,1291.62 610.737,1289.08 610.352,1286.52 610.006,1283.94 609.696,1281.37 609.421,1278.8 609.179,1276.24 608.966,1273.71 608.783,1271.2 608.627,1268.73 608.495,1266.31 608.386,1263.94 608.298,1261.64 608.229,1259.4 608.176,1257.25 608.139,1255.18 608.115,1253.2 608.102,1251.33 "/>
     <polygon id="_288605560" class="fil1" points="622.44,1320.62 1758.32,2456.5 1759.52,2457.73 1760.8,2458.89 624.917,1323.01 623.636,1321.85 "/>
     <polygon id="_288606064" class="fil1" points="474.03,1056.67 1609.91,2192.55 1599.88,2191.32 463.999,1055.43 "/>
     <polygon id="_288605608" class="fil1" points="708.117,1398.82 1844,2534.7 1814.46,2534.7 678.576,1398.82 "/>
     <polygon id="_288605584" class="fil1" points="678.576,1398.82 1814.46,2534.7 1811.1,2534.69 1807.68,2534.65 1804.18,2534.57 1800.63,2534.47 1797.02,2534.32 1793.36,2534.13 1789.66,2533.9 1785.93,2533.62 1782.17,2533.28 1778.39,2532.89 1774.6,2532.45 1770.8,2531.94 1767,2531.36 1763.21,2530.71 1759.43,2530 1755.67,2529.2 1751.94,2528.33 1748.24,2527.37 1744.58,2526.33 1740.97,2525.2 1737.42,2523.97 1733.92,2522.65 1730.5,2521.23 1727.15,2519.7 1723.88,2518.07 1720.69,2516.33 1717.61,2514.47 1714.62,2512.5 1711.75,2510.4 1708.98,2508.18 573.103,1372.3 575.865,1374.52 578.741,1376.61 581.726,1378.59 584.813,1380.44 587.995,1382.19 591.265,1383.82 594.617,1385.34 598.043,1386.77 601.537,1388.09 605.092,1389.32 608.702,1390.45 612.358,1391.49 616.056,1392.45 619.789,1393.32 623.547,1394.11 627.326,1394.83 631.119,1395.48 634.919,1396.05 638.718,1396.56 642.511,1397.01 646.29,1397.4 650.05,1397.74 653.781,1398.02 657.479,1398.25 661.137,1398.44 664.746,1398.58 668.302,1398.69 671.796,1398.76 675.224,1398.81 "/>
     <polygon id="_288605800" class="fil1" points="608.098,1156.77 1743.98,2292.65 1743.98,2385.45 608.098,1249.57 "/>
     <polygon id="_288605752" class="fil1" points="708.117,1335.14 1844,2471.02 1844,2534.7 708.117,1398.82 "/>
     <polygon id="_288605776" class="fil1" points="708.117,712.86 1844,1848.74 1818.39,1848.74 682.514,712.86 "/>
     <polygon id="_288605848" class="fil1" points="806.858,867.924 1942.74,2003.81 1942.74,2079.92 806.858,944.033 "/>
     <polygon id="_288605968" class="fil1" points="806.858,944.033 1942.74,2079.92 1820.24,2159.51 684.355,1023.62 "/>
     <polygon id="_288606424" class="fil1" points="806.858,1103.9 1942.74,2239.79 1942.74,2316.11 806.858,1180.22 "/>
     <polygon id="_288606832" class="fil1" points="806.858,1180.22 1942.74,2316.11 1753.44,2188.04 617.556,1052.15 "/>
     <polygon id="_288606280" class="fil1" points="867.629,1275.8 2003.51,2411.68 1937.3,2393.99 801.423,1258.11 "/>
     <polygon id="_288606712" class="fil1" points="1018.01,789.889 2153.89,1925.77 2003.51,2411.68 867.629,1275.8 "/>
     <polygon id="_288606760" class="fil1" points="1510.01,896.744 2645.89,2032.63 2645.9,2034.84 2645.93,2037.11 2645.97,2039.44 2646.04,2041.82 2646.12,2044.25 2646.24,2046.71 2646.38,2049.22 2646.55,2051.75 2646.76,2054.31 2646.99,2056.9 2647.26,2059.49 2647.58,2062.1 2647.92,2064.72 2648.32,2067.33 2648.75,2069.94 2649.23,2072.55 2649.77,2075.13 2650.34,2077.7 2650.98,2080.24 2651.66,2082.76 2652.41,2085.23 2653.21,2087.67 2654.07,2090.06 2654.99,2092.41 2655.98,2094.69 2657.04,2096.92 2658.16,2099.08 2659.36,2101.17 2660.62,2103.19 2661.97,2105.12 2663.39,2106.97 2664.88,2108.73 1529,972.849 1527.5,971.09 1526.08,969.241 1524.74,967.306 1523.48,965.291 1522.28,963.199 1521.16,961.038 1520.1,958.81 1519.11,956.524 1518.19,954.18 1517.33,951.789 1516.53,949.351 1515.78,946.873 1515.1,944.361 1514.46,941.818 1513.88,939.25 1513.35,936.663 1512.87,934.063 1512.44,931.451 1512.04,928.836 1511.69,926.221 1511.38,923.612 1511.11,921.014 1510.87,918.432 1510.67,915.87 1510.5,913.335 1510.36,910.831 1510.24,908.363 1510.15,905.936 1510.09,903.556 1510.04,901.228 1510.02,898.955 "/>
     <polygon id="_288606328" class="fil1" points="1584,993.354 2719.88,2129.24 2719.88,2191.32 1584,1055.43 "/>
     <polygon id="_288606616" class="fil1" points="1584,1055.43 2719.88,2191.32 2709.85,2192.55 1573.97,1056.67 "/>
     <polygon id="_288606400" class="fil1" points="1495.75,1024.83 2631.63,2160.71 2628.82,2159.19 2626.06,2157.59 2623.34,2155.93 2620.68,2154.18 2618.07,2152.36 2615.53,2150.47 2613.04,2148.49 2610.63,2146.42 2608.28,2144.28 2606.01,2142.05 2603.81,2139.73 1467.93,1003.85 1470.13,1006.17 1472.4,1008.4 1474.75,1010.54 1477.16,1012.6 1479.64,1014.58 1482.19,1016.48 1484.8,1018.3 1487.46,1020.04 1490.17,1021.71 1492.94,1023.3 "/>
     <polygon id="_288606448" class="fil1" points="1528.99,1075.96 2664.87,2211.84 2663.37,2213.59 2661.95,2215.43 2660.61,2217.36 2659.34,2219.36 2658.15,2221.45 2657.03,2223.6 2655.97,2225.82 2654.98,2228.1 2654.06,2230.43 2653.2,2232.81 2652.4,2235.24 2651.66,2237.71 2650.97,2240.21 2650.34,2242.75 2649.76,2245.3 2649.23,2247.88 2648.75,2250.47 2648.31,2253.07 2647.92,2255.68 2647.57,2258.28 2647.26,2260.88 2646.99,2263.47 2646.75,2266.05 2646.55,2268.6 2646.38,2271.13 2646.24,2273.62 2646.12,2276.08 2646.04,2278.5 2645.97,2280.87 2645.93,2283.19 2645.9,2285.46 2645.89,2287.66 1510.01,1151.78 1510.02,1149.58 1510.04,1147.31 1510.09,1144.99 1510.15,1142.62 1510.24,1140.2 1510.36,1137.74 1510.5,1135.24 1510.67,1132.72 1510.87,1130.16 1511.11,1127.59 1511.38,1125 1511.69,1122.4 1512.04,1119.8 1512.43,1117.19 1512.87,1114.59 1513.35,1112 1513.88,1109.42 1514.46,1106.86 1515.09,1104.33 1515.78,1101.83 1516.52,1099.36 1517.32,1096.93 1518.18,1094.55 1519.1,1092.21 1520.09,1089.94 1521.15,1087.72 1522.27,1085.56 1523.46,1083.48 1524.73,1081.47 1526.07,1079.55 1527.49,1077.71 "/>
     <polygon id="_288606592" class="fil1" points="1378.28,1112.08 2514.17,2247.96 2514.17,2306.01 1378.28,1170.12 "/>
     <polygon id="_288607120" class="fil1" points="1201.88,994.417 2337.76,2130.3 2337.76,2188.04 1201.88,1052.15 "/>
     <polygon id="_288607240" class="fil1" points="1134.92,1023.62 2270.8,2159.51 2148.45,2079.91 1012.57,944.03 "/>
     <polygon id="_288607552" class="fil1" points="1201.88,1052.15 2337.76,2188.04 2148.45,2316.11 1012.57,1180.22 "/>
     <polygon id="_288607216" class="fil1" points="1573.97,1056.67 2709.85,2192.55 2708.35,2192.74 2706.83,2192.96 2705.31,2193.19 2703.79,2193.44 2702.26,2193.71 2700.72,2194 2699.18,2194.32 2697.65,2194.65 2696.12,2195.02 2694.58,2195.4 2693.06,2195.82 2691.54,2196.25 2690.03,2196.72 2688.52,2197.21 2687.03,2197.74 2685.55,2198.29 2684.09,2198.87 2682.64,2199.49 2681.21,2200.13 2679.8,2200.81 2678.4,2201.53 2677.03,2202.28 2675.68,2203.06 2674.36,2203.88 2673.07,2204.73 2671.8,2205.63 2670.56,2206.56 2669.35,2207.54 2668.18,2208.55 2667.04,2209.6 2665.94,2210.7 2664.87,2211.84 1528.99,1075.96 1530.05,1074.82 1531.16,1073.72 1532.3,1072.67 1533.47,1071.65 1534.68,1070.68 1535.92,1069.75 1537.18,1068.85 1538.48,1068 1539.8,1067.18 1541.15,1066.39 1542.52,1065.65 1543.91,1064.93 1545.33,1064.25 1546.76,1063.61 1548.21,1062.99 1549.67,1062.41 1551.15,1061.86 1552.64,1061.33 1554.15,1060.84 1555.66,1060.37 1557.18,1059.93 1558.7,1059.52 1560.23,1059.13 1561.77,1058.77 1563.3,1058.43 1564.84,1058.12 1566.37,1057.83 1567.91,1057.55 1569.43,1057.3 1570.95,1057.07 1572.47,1056.86 "/>
     <polygon id="_288607024" class="fil1" points="1425.23,728.369 2561.11,1864.25 2559.87,1863 2558.53,1861.81 2557.11,1860.7 2555.6,1859.64 2554.01,1858.65 2552.35,1857.72 2550.62,1856.85 2548.83,1856.03 2546.99,1855.27 2545.09,1854.57 2543.15,1853.91 2541.17,1853.31 2539.15,1852.75 2537.1,1852.24 2535.03,1851.77 2532.94,1851.35 2530.84,1850.96 2528.73,1850.61 2526.62,1850.3 2524.51,1850.03 2522.4,1849.78 2520.31,1849.57 2518.25,1849.39 2516.2,1849.23 2514.19,1849.1 2512.21,1849 2510.27,1848.91 2508.37,1848.84 2506.53,1848.8 2504.75,1848.77 2503.02,1848.75 2501.37,1848.74 1365.49,712.86 1367.14,712.866 1368.87,712.883 1370.65,712.915 1372.49,712.962 1374.39,713.029 1376.33,713.114 1378.3,713.221 1380.32,713.352 1382.36,713.508 1384.43,713.691 1386.52,713.903 1388.62,714.146 1390.73,714.422 1392.85,714.732 1394.96,715.079 1397.06,715.464 1399.15,715.89 1401.22,716.358 1403.27,716.869 1405.28,717.427 1407.27,718.032 1409.21,718.686 1411.11,719.392 1412.95,720.152 1414.74,720.967 1416.47,721.838 1418.13,722.768 1419.71,723.76 1421.22,724.814 1422.65,725.931 1423.99,727.116 "/>
     <polygon id="_288607096" class="fil1" points="1365.49,712.86 2501.37,1848.74 2475.76,1848.74 1339.88,712.86 "/>
     <polygon id="_288607192" class="fil1" points="1482.42,683.969 2618.3,1819.85 2620.61,1822.75 2622.79,1825.79 2624.85,1828.98 2626.78,1832.3 2628.59,1835.74 2630.29,1839.3 2631.87,1842.97 2633.34,1846.72 2634.71,1850.57 2635.98,1854.5 2637.15,1858.49 2638.23,1862.55 2639.22,1866.65 2640.12,1870.8 2640.94,1874.98 2641.68,1879.19 2642.34,1883.42 2642.94,1887.65 2643.47,1891.87 2643.93,1896.09 2644.33,1900.29 2644.68,1904.45 2644.97,1908.58 2645.22,1912.67 2645.42,1916.69 2645.58,1920.65 2645.7,1924.54 2645.79,1928.34 2645.85,1932.06 2645.88,1935.67 2645.89,1939.17 1510.01,803.288 1510,799.786 1509.97,796.175 1509.91,792.462 1509.82,788.658 1509.7,784.771 1509.54,780.81 1509.34,776.783 1509.09,772.701 1508.8,768.572 1508.45,764.404 1508.05,760.208 1507.58,755.991 1507.06,751.764 1506.46,747.533 1505.8,743.31 1505.06,739.103 1504.24,734.919 1503.34,730.77 1502.35,726.663 1501.27,722.608 1500.1,718.614 1498.83,714.689 1497.46,710.842 1495.99,707.083 1494.41,703.42 1492.71,699.862 1490.9,696.419 1488.97,693.099 1486.91,689.911 1484.73,686.865 "/>
     <polygon id="_288607312" class="fil1" points="1510.01,803.288 2645.89,1939.17 2645.89,2032.63 1510.01,896.744 "/>
     <polygon id="_288607360" class="fil1" points="1378.28,1170.12 2514.17,2306.01 2286.84,2306.01 1150.96,1170.12 "/>
     <polygon id="_288607456" class="fil1" points="1480.05,1367.48 2615.93,2503.36 2613.42,2505.84 2610.78,2508.18 2608.02,2510.4 2605.14,2512.5 2602.15,2514.47 2599.07,2516.33 2595.89,2518.07 2592.62,2519.7 2589.26,2521.23 2585.84,2522.65 2582.34,2523.97 2578.79,2525.2 2575.18,2526.33 2571.52,2527.37 2567.82,2528.33 2564.09,2529.2 2560.33,2530 2556.55,2530.71 2552.76,2531.36 2548.96,2531.94 2545.16,2532.45 2541.37,2532.89 2537.59,2533.28 2533.83,2533.62 2530.1,2533.9 2526.4,2534.13 2522.74,2534.32 2519.14,2534.47 2515.58,2534.57 2512.09,2534.65 2508.66,2534.69 2505.31,2534.7 1369.42,1398.82 1372.78,1398.81 1376.2,1398.76 1379.7,1398.69 1383.25,1398.58 1386.86,1398.44 1390.52,1398.25 1394.22,1398.02 1397.95,1397.74 1401.71,1397.4 1405.49,1397.01 1409.28,1396.56 1413.08,1396.05 1416.88,1395.48 1420.67,1394.83 1424.45,1394.11 1428.21,1393.32 1431.94,1392.45 1435.64,1391.49 1439.3,1390.45 1442.91,1389.32 1446.46,1388.09 1449.96,1386.77 1453.38,1385.34 1456.73,1383.82 1460.01,1382.19 1463.19,1380.44 1466.27,1378.59 1469.26,1376.61 1472.14,1374.52 1474.9,1372.3 1477.54,1369.96 "/>
     <polygon id="_288607720" class="fil1" points="1369.42,1398.82 2505.31,2534.7 2475.76,2534.7 1339.88,1398.82 "/>
     <polygon id="_288608392" class="fil1" points="1510.01,1151.78 2645.89,2287.66 2645.89,2381.64 1510.01,1245.76 "/>
     <polygon id="_288607912" class="fil1" points="1510.01,1245.76 2645.89,2381.64 2645.88,2385.12 2645.85,2388.7 2645.79,2392.4 2645.71,2396.18 2645.59,2400.06 2645.43,2404 2645.23,2408.02 2644.99,2412.1 2644.69,2416.22 2644.35,2420.38 2643.95,2424.58 2643.49,2428.79 2642.97,2433.02 2642.38,2437.25 2641.72,2441.47 2640.98,2445.68 2640.17,2449.86 2639.27,2454.01 2638.28,2458.12 2637.21,2462.17 2636.04,2466.16 2634.78,2470.08 2633.41,2473.93 2631.94,2477.68 2630.36,2481.33 2628.66,2484.87 2626.86,2488.3 2624.93,2491.6 2622.87,2494.77 2620.69,2497.79 2618.38,2500.66 2615.93,2503.36 1480.05,1367.48 1482.49,1364.78 1484.81,1361.91 1486.99,1358.89 1489.04,1355.72 1490.97,1352.42 1492.78,1348.99 1494.48,1345.45 1496.06,1341.79 1497.53,1338.04 1498.9,1334.2 1500.16,1330.28 1501.33,1326.29 1502.4,1322.24 1503.39,1318.13 1504.28,1313.98 1505.1,1309.8 1505.84,1305.59 1506.5,1301.37 1507.09,1297.14 1507.61,1292.91 1508.07,1288.69 1508.47,1284.5 1508.81,1280.34 1509.11,1276.21 1509.35,1272.14 1509.55,1268.12 1509.7,1264.17 1509.82,1260.3 1509.91,1256.51 1509.97,1252.82 1510,1249.23 "/>
    </g>
    <path id="_289345880" class="fil1" d="M951.802 772.198l66.2056 17.6906 -150.378 485.913 -66.2056 -17.6906 150.378 -485.913zm-144.944 95.7261l0 76.1091 -122.503 79.591 122.503 80.2796 0 76.3205 -189.301 -128.072 0 -57.7359 189.301 -126.493zm-254.609 156.901c15.1299,7.79292 28.3855,18.6354 37.5307,33.7524 15.9626,26.3858 18.3189,68.1213 18.3189,98.1898l0 92.7993c0,18.1665 1.22953,56.6776 14.3421,71.0552 12.2681,13.4528 40.1221,15.3047 56.9245,15.3047 2.55945,0 5.20512,-0.194882 7.75867,-0.366142 3.16772,-0.216142 6.38977,-0.420473 9.56576,-0.420473l11.4284 0 0 63.678 -29.5418 0c-35.3351,0 -84.5575,-4.21654 -110.622,-31.337 -26.8536,-27.9449 -29.9646,-85.3016 -29.9646,-121.721l0 -93.9804c0,-23.1603 -2.57599,-57.6508 -18.9768,-75.8245 -11.1709,-12.3791 -28.9949,-17.3185 -44.9823,-19.2874l-10.0311 -1.23543 0 -62.0788 10.0311 -1.23425c15.9543,-1.96536 33.8362,-6.88583 44.9681,-19.2709 16.4079,-18.2551 18.991,-52.8709 18.991,-76.1044l0 -93.456c0,-36.7359 3.19607,-93.7406 30.0437,-122.058 26.2217,-27.6567 74.7379,-32.0492 110.543,-32.0492l29.5418 0 0 63.678 -25.604 0c-17.2807,0 -47.0032,1.77638 -59.7449,15.5091 -13.3913,14.4307 -14.6705,52.7741 -14.6705,71.1142l0 93.3237c0,30.0414 -2.37284,71.7001 -18.3189,98.0599 -9.14646,15.1181 -22.4138,26.0327 -37.5307,33.9591zm957.763 -128.081c0,23.2335 2.58307,57.8493 18.991,76.1044 11.1319,12.385 29.0138,17.3055 44.9681,19.2709l10.0311 1.23425 0 62.0788 -10.0311 1.23543c-15.9874,1.9689 -33.8114,6.90827 -44.9823,19.2874 -16.4008,18.1736 -18.9768,52.6642 -18.9768,75.8245l0 93.9804c0,36.4193 -3.11103,93.7761 -29.9646,121.721 -26.0646,27.1205 -75.2871,31.337 -110.622,31.337l-29.5418 0 0 -63.678 11.4284 0c3.17599,0 6.39804,0.204331 9.56576,0.420473 2.55355,0.17126 5.19922,0.366142 7.75867,0.366142 16.8024,0 44.6563,-1.85197 56.9245,-15.3047 13.1126,-14.3776 14.3421,-52.8886 14.3421,-71.0552l0 -92.7993c0,-30.0685 2.3563,-71.804 18.3189,-98.1898 9.14528,-15.1169 22.4008,-25.9595 37.5307,-33.7524 -15.1169,-7.92638 -28.3843,-18.841 -37.5307,-33.9591 -15.9461,-26.3599 -18.3189,-68.0186 -18.3189,-98.0599l0 -93.3237c0,-18.3402 -1.27913,-56.6835 -14.6705,-71.1142 -12.7417,-13.7327 -42.4642,-15.5091 -59.7449,-15.5091l-25.604 0 0 -63.678 29.5418 0c35.8051,0 84.3213,4.39252 110.543,32.0492 26.8477,28.317 30.0437,85.3217 30.0437,122.058l0 93.456zm-308.136 97.6725l0 57.7359 -189.303 128.072 0 -76.3158 122.347 -80.2843 -122.347 -79.5945 0 -76.1056 189.303 126.493zm176.41 117.66l0 58.0465 -227.329 0 0 -58.0465 227.329 0z"/>
   </g>
  </g>
  <path class="fil2" d="M1024 -0.0011811c565.539,0 1024,458.462 1024,1024 0,565.539 -458.462,1024 -1024,1024 -565.539,0 -1024,-458.462 -1024,-1024 0,-565.539 458.462,-1024 1024,-1024z"/>
  <path class="fil3" d="M552.248 1024.83c15.1299,7.79292 28.3855,18.6354 37.5307,33.7524 15.9626,26.3858 18.3189,68.1201 18.3189,98.1898l0 92.7993c0,18.1677 1.22953,56.6776 14.3421,71.0552 12.2681,13.4516 40.1221,15.3047 56.9233,15.3047 2.56063,0 5.20512,-0.193701 7.75867,-0.367323 3.1689,-0.214961 6.39095,-0.419292 9.56694,-0.419292l11.4284 0 0 63.6768 -29.5418 0c-35.3339,0 -84.5575,-4.21418 -110.621,-31.3359 -26.8547,-27.9449 -29.9646,-85.3016 -29.9646,-121.721l0 -93.9804c0,-23.1591 -2.57717,-57.6508 -18.978,-75.8245 -11.1709,-12.3791 -28.9961,-17.3185 -44.9823,-19.2874l-10.0299 -1.23543 0 -62.0776 10.0299 -1.23543c15.9543,-1.96536 33.8362,-6.88583 44.9681,-19.2709 16.4079,-18.2551 18.9921,-52.8709 18.9921,-76.1044l0 -93.456c0,-36.7359 3.19488,-93.7406 30.0425,-122.058 26.2217,-27.6567 74.7379,-32.0481 110.543,-32.0481l29.5418 0 0 63.6768 -25.604 0c-17.2795,0 -47.0032,1.77638 -59.7461,15.5091 -13.3902,14.4307 -14.6693,52.7741 -14.6693,71.113l0 93.3261c0,30.0402 -2.37284,71.6989 -18.3189,98.0587 -9.14646,15.1181 -22.4138,26.0327 -37.5307,33.9591zm943.503 0c-15.1169,-7.92638 -28.3843,-18.841 -37.5307,-33.9591 -15.9461,-26.3599 -18.3189,-68.0186 -18.3189,-98.0587l0 -93.3261c0,-18.339 -1.27913,-56.6823 -14.6693,-71.113 -12.7429,-13.7327 -42.4666,-15.5091 -59.7461,-15.5091l-25.604 0 0 -63.6768 29.5418 0c35.8051,0 84.3213,4.39134 110.543,32.0481 26.8477,28.317 30.0425,85.3217 30.0425,122.058l0 93.456c0,23.2335 2.58425,57.8493 18.9921,76.1044 11.1319,12.385 29.0138,17.3055 44.9681,19.2709l10.0299 1.23543 0 62.0776 -10.0299 1.23543c-15.9862,1.9689 -33.8114,6.90827 -44.9823,19.2874 -16.4008,18.1736 -18.978,52.6654 -18.978,75.8245l0 93.9804c0,36.4193 -3.10984,93.7761 -29.9646,121.721 -26.0634,27.1217 -75.2871,31.3359 -110.621,31.3359l-29.5418 0 0 -63.6768 11.4284 0c3.17599,0 6.39804,0.204331 9.56694,0.419292 2.55355,0.173622 5.19804,0.367323 7.75867,0.367323 16.8012,0 44.6552,-1.85315 56.9233,-15.3047 13.1126,-14.3776 14.3421,-52.8874 14.3421,-71.0552l0 -92.7993c0,-30.0697 2.3563,-71.804 18.3189,-98.1898 9.14528,-15.1169 22.4008,-25.9595 37.5307,-33.7524z"/>
  <polygon class="fil4" points="1150.96,1170.12 1150.96,1112.08 1378.28,1112.08 1378.28,1170.12 "/>
  <polygon class="fil5" points="684.355,1023.62 806.858,1103.9 806.858,1180.22 617.556,1052.15 617.556,994.417 806.858,867.924 806.858,944.033 "/>
  <polygon class="fil5" points="1134.92,1023.62 1012.57,944.03 1012.57,867.924 1201.88,994.417 1201.88,1052.15 1012.57,1180.22 1012.57,1103.91 "/>
  <polygon class="fil6" points="1018.01,789.889 867.629,1275.8 801.423,1258.11 951.802,772.198 "/>
 </g>
</svg>
